<?xml version="1.0" standalone="no"?>
<!DOCTYPE svg PUBLIC "-//W3C//DTD SVG 20010904//EN"
 "http://www.w3.org/TR/2001/REC-SVG-20010904/DTD/svg10.dtd">
<svg version="1.0" xmlns="http://www.w3.org/2000/svg"
 width="224.000000pt" height="224.000000pt" viewBox="0 0 224.000000 224.000000"
 preserveAspectRatio="xMidYMid meet">
<metadata>
Created by potrace 1.14, written by Peter Selinger 2001-2017
</metadata>
<g transform="translate(0.000000,224.000000) scale(0.100000,-0.100000)"
fill="#000000" stroke="none">
<path d="M915 2022 c-367 -94 -623 -359 -702 -727 -11 -51 -14 -109 -11 -210
4 -129 8 -149 42 -252 21 -62 54 -140 74 -174 119 -200 317 -355 545 -426 100
-31 304 -43 413 -24 196 34 388 140 521 285 100 111 157 210 209 366 27 80 28
95 28 260 0 165 -1 180 -28 260 -36 108 -60 161 -104 230 -118 185 -293 320
-508 391 -92 30 -110 33 -254 36 -124 2 -169 -1 -225 -15z m360 -84 c246 -37
492 -228 606 -471 16 -34 31 -76 35 -94 l6 -31 -68 -9 c-38 -4 -136 -8 -219
-8 -171 0 -184 4 -270 85 -37 35 -69 53 -120 70 -39 12 -92 34 -119 47 -46 23
-54 24 -172 17 -100 -5 -126 -10 -140 -25 -38 -42 31 -139 99 -139 24 0 28 -3
17 -10 -8 -5 -24 -10 -34 -10 -34 0 -102 -39 -114 -65 -15 -33 -7 -232 11
-253 6 -8 12 -25 13 -36 3 -78 6 -88 34 -118 16 -17 30 -40 30 -50 0 -73 118
-113 215 -72 26 10 75 16 159 17 119 2 124 3 198 39 l76 38 196 0 c120 0 196
-4 196 -10 0 -20 -50 -122 -93 -188 -56 -86 -151 -180 -244 -242 -267 -177
-637 -177 -905 -1 -273 180 -419 495 -374 811 8 58 24 130 34 160 98 282 362
508 642 549 142 21 162 21 305 -1z m-149 -457 c38 -16 88 -35 111 -41 25 -8
69 -37 113 -75 51 -45 84 -66 118 -75 53 -13 265 -14 387 -1 44 4 82 7 84 5 2
-2 9 -42 14 -89 8 -64 8 -111 -2 -187 -7 -56 -15 -106 -17 -110 -3 -5 -93 -8
-201 -8 l-195 0 7 28 6 27 -33 -31 c-72 -68 -173 -104 -294 -104 -39 0 -40 1
-36 29 2 16 -2 39 -8 51 -10 19 -10 24 3 32 27 15 32 67 8 99 -28 38 -14 43
44 14 29 -15 66 -25 92 -25 59 0 54 16 -7 22 -57 6 -114 40 -131 79 -6 15 -21
36 -34 47 -24 21 -43 82 -31 100 3 5 27 8 53 6 l48 -4 -38 10 c-47 12 -77 28
-77 40 0 6 8 10 18 10 15 0 15 2 2 10 -13 9 -13 12 3 21 9 5 17 15 17 21 0 9
-3 9 -12 0 -16 -16 -28 -15 -28 3 0 18 -17 20 -22 3 -4 -10 -10 -10 -32 0 -22
10 -26 16 -20 35 6 21 6 21 -13 5 -45 -40 -162 -5 -175 52 -3 15 29 20 178 28
18 1 63 -11 100 -27z m-126 -171 c0 -28 -21 -36 -37 -15 -12 18 -13 18 -13 1
0 -15 -6 -17 -37 -12 l-38 6 28 -15 c15 -9 27 -19 27 -24 0 -4 17 -4 39 2 55
15 103 -5 99 -42 -3 -22 -10 -27 -55 -37 -86 -19 -185 4 -198 46 -18 58 25 96
125 110 53 7 60 5 60 -20z m82 -3 c26 -34 39 -127 17 -127 -6 0 -9 7 -5 15 10
27 -11 61 -48 79 -28 13 -36 23 -36 43 0 22 3 24 28 18 15 -3 35 -16 44 -28z
m-122 -171 c25 1 71 5 103 9 48 7 60 5 77 -10 42 -38 25 -56 -89 -96 -73 -26
-136 -24 -186 4 -36 20 -40 27 -43 66 l-3 43 48 -8 c26 -5 68 -8 93 -8z m204
-122 c9 -8 16 -19 16 -23 0 -17 -28 -41 -79 -67 -70 -36 -153 -44 -202 -19
-42 22 -49 32 -49 74 0 28 3 32 18 26 61 -26 106 -24 202 8 60 20 76 20 94 1z
m-16 -126 c25 -25 13 -45 -39 -68 -88 -37 -149 -39 -183 -4 -9 8 -16 24 -16
35 0 17 3 18 21 9 27 -15 103 -4 149 20 42 23 52 24 68 8z"/>
<path d="M868 1783 c7 -3 16 -2 19 1 4 3 -2 6 -13 5 -11 0 -14 -3 -6 -6z"/>
<path d="M840 1770 c0 -5 5 -10 11 -10 5 0 7 5 4 10 -3 6 -8 10 -11 10 -2 0
-4 -4 -4 -10z"/>
<path d="M1459 1743 c-13 -16 -12 -17 4 -4 9 7 17 15 17 17 0 8 -8 3 -21 -13z"/>
<path d="M592 806 c7 -8 15 -12 17 -11 5 6 -10 25 -20 25 -5 0 -4 -6 3 -14z"/>
<path d="M661 804 c0 -11 3 -14 6 -6 3 7 2 16 -1 19 -3 4 -6 -2 -5 -13z"/>
<path d="M518 683 c7 -3 16 -2 19 1 4 3 -2 6 -13 5 -11 0 -14 -3 -6 -6z"/>
<path d="M485 640 c-3 -6 1 -7 9 -4 18 7 21 14 7 14 -6 0 -13 -4 -16 -10z"/>
<path d="M920 446 c0 -2 7 -7 16 -10 8 -3 12 -2 9 4 -6 10 -25 14 -25 6z"/>
<path d="M877 1479 c13 -12 56 -15 60 -4 1 6 -13 10 -32 11 -20 0 -32 -3 -28
-7z"/>
<path d="M1528 1106 c-2 -18 2 -46 8 -62 12 -27 12 -26 12 28 1 64 -14 87 -20
34z"/>
<path d="M987 1233 c-4 -3 -7 -16 -6 -27 0 -20 1 -20 8 -1 4 11 19 23 32 26
l24 7 -26 1 c-14 1 -29 -2 -32 -6z"/>
<path d="M921 1214 c0 -11 3 -14 6 -6 3 7 2 16 -1 19 -3 4 -6 -2 -5 -13z"/>
<path d="M1073 1123 c-15 -6 -17 -39 -3 -48 6 -4 9 3 7 16 -1 17 5 25 23 30
19 5 21 7 5 7 -11 0 -26 -2 -32 -5z"/>
<path d="M962 1070 c0 -14 2 -19 5 -12 2 6 2 18 0 25 -3 6 -5 1 -5 -13z"/>
<path d="M1113 1010 c-25 -10 -30 -34 -11 -46 8 -5 9 -2 5 9 -4 12 2 21 21 31
30 17 20 20 -15 6z"/>
<path d="M982 940 c0 -14 2 -19 5 -12 2 6 2 18 0 25 -3 6 -5 1 -5 -13z"/>
<path d="M1108 879 c-20 -11 -24 -34 -6 -45 7 -5 8 -3 4 5 -5 7 0 21 10 32 19
21 17 23 -8 8z"/>
</g>
</svg>
